<?xml version="1.0" ?><!DOCTYPE svg  PUBLIC '-//W3C//DTD SVG 1.1//EN'  'http://www.w3.org/Graphics/SVG/1.1/DTD/svg11.dtd'><svg enable-background="new 0 0 512 512" id="Layer_1" version="1.1" viewBox="0 0 512 512" xml:space="preserve" xmlns="http://www.w3.org/2000/svg" xmlns:xlink="http://www.w3.org/1999/xlink"><linearGradient gradientUnits="userSpaceOnUse" id="SVGID_1_" x1="256" x2="256" y1="512" y2="-9.094947e-013"><stop offset="0" style="stop-color:#7B4397"/><stop offset="1" style="stop-color:#6441A5"/></linearGradient><circle cx="256" cy="256" fill="url(#SVGID_1_)" r="256"/><g><path d="M344.5,187.8h-83.6v-32.2c0-2.7-2.2-4.9-4.9-4.9c-2.7,0-4.9,2.2-4.9,4.9v32.2h-83.6   c-26.5,0-48.1,21.6-48.1,48.1v78.2c0,25.9,21.1,47.1,47.1,47.1s47.1-21.1,47.1-47.1v-10.7h84.8v10.7c0,25.9,21.1,47.1,47.1,47.1   c25.9,0,47.1-21.1,47.1-47.1v-78.2C392.5,209.4,371,187.8,344.5,187.8z M382.8,314.1c0,20.6-16.7,37.3-37.3,37.3   c-20.6,0-37.3-16.7-37.3-37.3v-15.6c0-2.7-2.2-4.9-4.9-4.9h-94.5c-2.7,0-4.9,2.2-4.9,4.9v15.6c0,20.6-16.7,37.3-37.3,37.3   s-37.3-16.7-37.3-37.3v-78.2c0-21.1,17.2-38.3,38.3-38.3h176.9c21.1,0,38.3,17.2,38.3,38.3V314.1z" fill="#FFFFFF"/><path d="M352.4,235.4h-15v-15c0-2.7-2.2-4.9-4.9-4.9c-2.7,0-4.9,2.2-4.9,4.9v15h-15c-2.7,0-4.9,2.2-4.9,4.9   c0,2.7,2.2,4.9,4.9,4.9h15v15c0,2.7,2.2,4.9,4.9,4.9c2.7,0,4.9-2.2,4.9-4.9v-15h15c2.7,0,4.9-2.2,4.9-4.9   C357.2,237.6,355,235.4,352.4,235.4z" fill="#FFFFFF"/><path d="M180,215.5c-14.8,0-26.9,12.1-26.9,26.9c0,14.8,12.1,26.9,26.9,26.9c14.8,0,26.9-12.1,26.9-26.9   C206.9,227.6,194.8,215.5,180,215.5z M180,259.6c-9.5,0-17.2-7.7-17.2-17.2c0-9.5,7.7-17.2,17.2-17.2c9.5,0,17.2,7.7,17.2,17.2   C197.2,251.9,189.5,259.6,180,259.6z" fill="#FFFFFF"/></g></svg>